<svg width="2589" height="2716" viewBox="0 0 2589 2716" fill="none" xmlns="http://www.w3.org/2000/svg">
<path d="M1888 1324.54L1945.42 1009.74" stroke="#FF0000" stroke-width="45.2432" stroke-linecap="round" stroke-linejoin="round"/>
<path d="M1381.44 1390.65L1438.33 1083.16" stroke="#FF0000" stroke-width="45.2432" stroke-linecap="round" stroke-linejoin="round"/>
<path d="M1561.33 445.161L1752.01 314.021" stroke="#0047FF" stroke-width="45.2432" stroke-linecap="round" stroke-linejoin="round"/>
<path d="M925.219 320.87L1113.08 191.678" stroke="#0047FF" stroke-width="45.2432" stroke-linecap="round" stroke-linejoin="round"/>
<path d="M1948.25 1007.79L2138.94 876.647" stroke="#0047FF" stroke-width="45.2432" stroke-linecap="round" stroke-linejoin="round"/>
<path d="M1458.75 1903.4L1642.83 1776.8" stroke="#0047FF" stroke-width="45.2432" stroke-linecap="round" stroke-linejoin="round"/>
<path d="M1391.88 1387.64L1944.12 1007.85" stroke="#0047FF" stroke-width="45.2432" stroke-linecap="round" stroke-linejoin="round"/>
<path d="M2206.4 1389.23L2397.09 1258.09" stroke="#0047FF" stroke-width="45.2432" stroke-linecap="round" stroke-linejoin="round"/>
<path d="M732.643 453.308L543.842 583.15L602.801 264.507L732.643 453.308Z" stroke="#FF0000" stroke-width="45.2432" stroke-linecap="round" stroke-linejoin="round"/>
<path d="M1241.62 378.591L1111.78 189.79L1427.59 250.697L1241.62 378.591Z" stroke="#FF0000" stroke-width="45.2432" stroke-linecap="round" stroke-linejoin="round"/>
<path d="M2016.65 682.654L2181.85 569.043" stroke="#FF0000" stroke-width="45.2432" stroke-linecap="round" stroke-linejoin="round"/>
<path d="M1324.13 1713.71L1513.27 1584.37" stroke="#FF0000" stroke-width="45.2432" stroke-linecap="round" stroke-linejoin="round"/>
<path d="M1444.29 1077.67L1633.43 948.32" stroke="#FF0000" stroke-width="45.2432" stroke-linecap="round" stroke-linejoin="round"/>
<path d="M1832.93 1648.85L2022.07 1519.5" stroke="#FF0000" stroke-width="45.2432" stroke-linecap="round" stroke-linejoin="round"/>
<path d="M1772.02 1964.66L1961.47 1835.76" stroke="#FF0000" stroke-width="45.2432" stroke-linecap="round" stroke-linejoin="round"/>
<path d="M2272.92 1065.39L2402.11 1253.25" stroke="#FF0000" stroke-width="45.2432" stroke-linecap="round" stroke-linejoin="round"/>
<path d="M1832.93 1648.85L1960.83 1834.82" stroke="#FF0000" stroke-width="45.2432" stroke-linecap="round" stroke-linejoin="round"/>
<path d="M1630.91 950.715L1759.45 1137.63" stroke="#FF0000" stroke-width="45.2432" stroke-linecap="round" stroke-linejoin="round"/>
<path d="M1427.59 250.697L1561.33 445.162" stroke="#FF0000" stroke-width="45.2432" stroke-linecap="round" stroke-linejoin="round"/>
<path d="M1441.46 1079.62L1568.7 1264.64" stroke="#0047FF" stroke-width="45.2432" stroke-linecap="round" stroke-linejoin="round"/>
<path d="M1381.85 1397.31L1512.99 1588" stroke="#0047FF" stroke-width="45.2432" stroke-linecap="round" stroke-linejoin="round"/>
<path d="M1640.24 1773.03L1771.38 1963.72" stroke="#0047FF" stroke-width="45.2432" stroke-linecap="round" stroke-linejoin="round"/>
<path d="M2209.88 1388.22L2341.02 1578.91" stroke="#0047FF" stroke-width="45.2432" stroke-linecap="round" stroke-linejoin="round"/>
<path d="M1755.26 318.741L1886.4 509.43" stroke="#0047FF" stroke-width="45.2432" stroke-linecap="round" stroke-linejoin="round"/>
<path d="M2139.89 875.998L2196.72 564.377" stroke="#FF0000" stroke-width="45.2432" stroke-linecap="round" stroke-linejoin="round"/>
<path d="M2083.05 1187.62L2140.48 872.813" stroke="#FF0000" stroke-width="45.2432" stroke-linecap="round" stroke-linejoin="round"/>
<path d="M2148.98 1704.03L2206.4 1389.23" stroke="#FF0000" stroke-width="45.2432" stroke-linecap="round" stroke-linejoin="round"/>
<path d="M1965.25 1833.17L2023.03 1520.9" stroke="#FF0000" stroke-width="45.2432" stroke-linecap="round" stroke-linejoin="round"/>
<path d="M1455.56 1902.81L1512.99 1588" stroke="#FF0000" stroke-width="45.2432" stroke-linecap="round" stroke-linejoin="round"/>
<path d="M2402.11 1253.25L2459.53 938.439" stroke="#FF0000" stroke-width="45.2432" stroke-linecap="round" stroke-linejoin="round"/>
<path d="M1117.86 192.563L791.601 134.667" stroke="#FF0000" stroke-width="45.2432" stroke-linecap="round" stroke-linejoin="round"/>
<path d="M2327.16 749.991L2012.64 690.972" stroke="#FF0000" stroke-width="45.2432" stroke-linecap="round" stroke-linejoin="round"/>
<path d="M1771.38 1963.72L1456.86 1904.7" stroke="#FF0000" stroke-width="45.2432" stroke-linecap="round" stroke-linejoin="round"/>
<path d="M2457.59 935.606L2143.07 876.587" stroke="#FF0000" stroke-width="45.2432" stroke-linecap="round" stroke-linejoin="round"/>
<path d="M2271.97 1066.04L2329.4 751.232" stroke="#0047FF" stroke-width="45.2432" stroke-linecap="round" stroke-linejoin="round"/>
<path d="M1324.78 1714.66L1382.21 1399.85" stroke="#0047FF" stroke-width="45.2432" stroke-linecap="round" stroke-linejoin="round"/>
<path d="M2341.03 1578.91L2403.11 1256.73" stroke="#0047FF" stroke-width="45.2432" stroke-linecap="round" stroke-linejoin="round"/>
<path d="M732.641 453.309L791.601 134.666" stroke="#0047FF" stroke-width="45.2432" stroke-linecap="round" stroke-linejoin="round"/>
<path d="M920.794 322.523L602.801 264.507" stroke="#0047FF" stroke-width="45.2432" stroke-linecap="round" stroke-linejoin="round"/>
<path d="M2073.32 1195.71L1758.8 1136.69" stroke="#0047FF" stroke-width="45.2432" stroke-linecap="round" stroke-linejoin="round"/>
<path d="M2197.67 563.73L1883.16 504.711" stroke="#0047FF" stroke-width="45.2432" stroke-linecap="round" stroke-linejoin="round"/>
<path d="M1877.14 506.068L1562.62 447.049" stroke="#0047FF" stroke-width="45.2432" stroke-linecap="round" stroke-linejoin="round"/>
<path d="M1947.6 1006.84L1633.09 947.825" stroke="#0047FF" stroke-width="45.2432" stroke-linecap="round" stroke-linejoin="round"/>
<path d="M2337.54 1579.92L2023.03 1520.9" stroke="#0047FF" stroke-width="45.2432" stroke-linecap="round" stroke-linejoin="round"/>
<path d="M1640.23 1773.03L1332.1 1715.19" stroke="#0047FF" stroke-width="45.2432" stroke-linecap="round" stroke-linejoin="round"/>
<path d="M1888.35 512.261L2011.7 691.622" stroke="#FF0000" stroke-width="45.2432" stroke-linecap="round" stroke-linejoin="round"/>
<path d="M719.678 1135.92L535.626 1397.69" stroke="#FF0000" stroke-width="45.2432" stroke-linecap="round" stroke-linejoin="round"/>
<path d="M1207.32 1288.15L1026.82 1543.51" stroke="#FF0000" stroke-width="45.2432" stroke-linecap="round" stroke-linejoin="round"/>
<path d="M647.81 2071.26L419.718 2110.43" stroke="#0047FF" stroke-width="45.2432" stroke-linecap="round" stroke-linejoin="round"/>
<path d="M1173.3 2450.65L948.594 2489.24" stroke="#0047FF" stroke-width="45.2432" stroke-linecap="round" stroke-linejoin="round"/>
<path d="M532.238 1398.27L304.147 1437.44" stroke="#0047FF" stroke-width="45.2432" stroke-linecap="round" stroke-linejoin="round"/>
<path d="M1351.98 790.192L1131.79 828.004" stroke="#0047FF" stroke-width="45.2432" stroke-linecap="round" stroke-linejoin="round"/>
<path d="M1196.58 1286.51L536.016 1399.95" stroke="#0047FF" stroke-width="45.2432" stroke-linecap="round" stroke-linejoin="round"/>
<path d="M457.676 943.766L229.584 982.935" stroke="#0047FF" stroke-width="45.2432" stroke-linecap="round" stroke-linejoin="round"/>
<path d="M1403.65 2411.09L1629.48 2372.31L1442.43 2636.93L1403.65 2411.09Z" stroke="#FF0000" stroke-width="45.2432" stroke-linecap="round" stroke-linejoin="round"/>
<path d="M910.2 2265.66L948.981 2491.5L687.754 2303.86L910.2 2265.66Z" stroke="#FF0000" stroke-width="45.2432" stroke-linecap="round" stroke-linejoin="round"/>
<path d="M333.896 1664.83L136.292 1698.76" stroke="#FF0000" stroke-width="45.2432" stroke-linecap="round" stroke-linejoin="round"/>
<path d="M1394.73 1018.83L1168.79 1057.02" stroke="#FF0000" stroke-width="45.2432" stroke-linecap="round" stroke-linejoin="round"/>
<path d="M1019.11 1546L793.172 1584.19" stroke="#FF0000" stroke-width="45.2432" stroke-linecap="round" stroke-linejoin="round"/>
<path d="M905.568 864.527L679.634 902.717" stroke="#FF0000" stroke-width="45.2432" stroke-linecap="round" stroke-linejoin="round"/>
<path d="M1093.2 603.3L867.174 640.952" stroke="#FF0000" stroke-width="45.2432" stroke-linecap="round" stroke-linejoin="round"/>
<path d="M261.592 1209.93L223.004 985.228" stroke="#FF0000" stroke-width="45.2432" stroke-linecap="round" stroke-linejoin="round"/>
<path d="M905.568 864.527L867.369 642.081" stroke="#FF0000" stroke-width="45.2432" stroke-linecap="round" stroke-linejoin="round"/>
<path d="M796.466 1583.07L758.072 1359.49" stroke="#FF0000" stroke-width="45.2432" stroke-linecap="round" stroke-linejoin="round"/>
<path d="M687.754 2303.86L647.809 2071.26" stroke="#FF0000" stroke-width="45.2432" stroke-linecap="round" stroke-linejoin="round"/>
<path d="M1022.49 1545.41L984.488 1324.1" stroke="#0047FF" stroke-width="45.2432" stroke-linecap="round" stroke-linejoin="round"/>
<path d="M1209.74 1281.93L1170.57 1053.84" stroke="#0047FF" stroke-width="45.2432" stroke-linecap="round" stroke-linejoin="round"/>
<path d="M1132.56 832.52L1093.39 604.428" stroke="#0047FF" stroke-width="45.2432" stroke-linecap="round" stroke-linejoin="round"/>
<path d="M454.095 943.218L414.925 715.126" stroke="#0047FF" stroke-width="45.2432" stroke-linecap="round" stroke-linejoin="round"/>
<path d="M418.746 2104.78L379.577 1876.69" stroke="#0047FF" stroke-width="45.2432" stroke-linecap="round" stroke-linejoin="round"/>
<path d="M303.018 1437.64L120.836 1696.77" stroke="#FF0000" stroke-width="45.2432" stroke-linecap="round" stroke-linejoin="round"/>
<path d="M485.2 1178.51L301.148 1440.28" stroke="#FF0000" stroke-width="45.2432" stroke-linecap="round" stroke-linejoin="round"/>
<path d="M641.728 681.991L457.676 943.766" stroke="#FF0000" stroke-width="45.2432" stroke-linecap="round" stroke-linejoin="round"/>
<path d="M862.657 641.725L679.347 901.048" stroke="#FF0000" stroke-width="45.2432" stroke-linecap="round" stroke-linejoin="round"/>
<path d="M1354.62 792.063L1170.57 1053.84" stroke="#FF0000" stroke-width="45.2432" stroke-linecap="round" stroke-linejoin="round"/>
<path d="M223.003 985.229L38.9513 1247" stroke="#FF0000" stroke-width="45.2432" stroke-linecap="round" stroke-linejoin="round"/>
<path d="M944.625 2486.43L1216.6 2675.71" stroke="#FF0000" stroke-width="45.2432" stroke-linecap="round" stroke-linejoin="round"/>
<path d="M80.184 1473.58L341.024 1658.95" stroke="#FF0000" stroke-width="45.2432" stroke-linecap="round" stroke-linejoin="round"/>
<path d="M1093.39 604.429L1354.23 789.804" stroke="#FF0000" stroke-width="45.2432" stroke-linecap="round" stroke-linejoin="round"/>
<path d="M39.5327 1250.39L300.372 1435.77" stroke="#FF0000" stroke-width="45.2432" stroke-linecap="round" stroke-linejoin="round"/>
<path d="M262.719 1209.74L78.6671 1471.51" stroke="#0047FF" stroke-width="45.2432" stroke-linecap="round" stroke-linejoin="round"/>
<path d="M1394.53 1017.7L1210.48 1279.47" stroke="#0047FF" stroke-width="45.2432" stroke-linecap="round" stroke-linejoin="round"/>
<path d="M414.925 715.127L223.551 981.647" stroke="#0047FF" stroke-width="45.2432" stroke-linecap="round" stroke-linejoin="round"/>
<path d="M1403.65 2411.09L1216.6 2675.71" stroke="#0047FF" stroke-width="45.2432" stroke-linecap="round" stroke-linejoin="round"/>
<path d="M1178.01 2451.01L1442.43 2636.93" stroke="#0047FF" stroke-width="45.2432" stroke-linecap="round" stroke-linejoin="round"/>
<path d="M497.428 1175.24L758.268 1360.62" stroke="#0047FF" stroke-width="45.2432" stroke-linecap="round" stroke-linejoin="round"/>
<path d="M119.708 1696.96L380.548 1882.33" stroke="#0047FF" stroke-width="45.2432" stroke-linecap="round" stroke-linejoin="round"/>
<path d="M386.582 1883.62L647.421 2069" stroke="#0047FF" stroke-width="45.2432" stroke-linecap="round" stroke-linejoin="round"/>
<path d="M532.434 1399.4L793.274 1584.78" stroke="#0047FF" stroke-width="45.2432" stroke-linecap="round" stroke-linejoin="round"/>
<path d="M418.508 715.674L679.348 901.05" stroke="#0047FF" stroke-width="45.2432" stroke-linecap="round" stroke-linejoin="round"/>
<path d="M1132.57 832.519L1388.11 1014.15" stroke="#0047FF" stroke-width="45.2432" stroke-linecap="round" stroke-linejoin="round"/>
<path d="M378.996 1873.3L342.154 1658.76" stroke="#FF0000" stroke-width="45.2432" stroke-linecap="round" stroke-linejoin="round"/>
</svg>
