<svg width="2391" height="1821" viewBox="0 0 2391 1821" fill="none" xmlns="http://www.w3.org/2000/svg">
<path d="M1154.27 1391.96L1207.59 1265.99" stroke="#FF0000" stroke-width="29.3904" stroke-linecap="round" stroke-linejoin="round"/>
<path d="M1030.62 1341.83L1083.94 1215.85" stroke="#FF0000" stroke-width="29.3904" stroke-linecap="round" stroke-linejoin="round"/>
<path d="M1013.16 1037.34L888.425 984.549L1065.42 913.86L1013.16 1037.34Z" stroke="#FF0000" stroke-width="29.3904" stroke-linecap="round" stroke-linejoin="round"/>
<path d="M710.371 1057.73L835.103 1110.53L657.576 1182.47L710.371 1057.73Z" stroke="#FF0000" stroke-width="29.3904" stroke-linecap="round" stroke-linejoin="round"/>
<path d="M302.521 1326.34L249.727 1451.07L177.79 1273.54L302.521 1326.34Z" stroke="#FF0000" stroke-width="29.3904" stroke-linecap="round" stroke-linejoin="round"/>
<path d="M230.585 1148.81L177.79 1273.54L105.853 1096.02L230.585 1148.81Z" stroke="#FF0000" stroke-width="29.3904" stroke-linecap="round" stroke-linejoin="round"/>
<path d="M1153.74 1393.21L1101.21 1517.32L1030.62 1341.83L1153.74 1393.21Z" stroke="#FF0000" stroke-width="29.3904" stroke-linecap="round" stroke-linejoin="round"/>
<path d="M1190.43 968.61L1262 1142.67" stroke="#0047FF" stroke-width="29.3904" stroke-linecap="round" stroke-linejoin="round"/>
<path d="M1136.21 1092.37L1189.53 966.391" stroke="#0047FF" stroke-width="29.3904" stroke-linecap="round" stroke-linejoin="round"/>
<path d="M1137.89 1090.14L1260.75 1142.14" stroke="#0047FF" stroke-width="29.3904" stroke-linecap="round" stroke-linejoin="round"/>
<path d="M1137.89 1090.14L1208.99 1268.78" stroke="#0047FF" stroke-width="29.3904" stroke-linecap="round" stroke-linejoin="round"/>
<path d="M1083.94 1215.85L1137.27 1089.88" stroke="#0047FF" stroke-width="29.3904" stroke-linecap="round" stroke-linejoin="round"/>
<path d="M1083.94 1215.85L1206.8 1267.86" stroke="#0047FF" stroke-width="29.3904" stroke-linecap="round" stroke-linejoin="round"/>
<path d="M927.656 1592.04L749.014 1663.14" stroke="#0047FF" stroke-width="29.3904" stroke-linecap="round" stroke-linejoin="round"/>
<path d="M801.941 1538.09L927.92 1591.42" stroke="#0047FF" stroke-width="29.3904" stroke-linecap="round" stroke-linejoin="round"/>
<path d="M801.941 1538.09L749.938 1660.96" stroke="#0047FF" stroke-width="29.3904" stroke-linecap="round" stroke-linejoin="round"/>
<path d="M927.656 1592.04L749.014 1663.14" stroke="#0047FF" stroke-width="29.3904" stroke-linecap="round" stroke-linejoin="round"/>
<path d="M801.941 1538.09L927.92 1591.42" stroke="#0047FF" stroke-width="29.3904" stroke-linecap="round" stroke-linejoin="round"/>
<path d="M392.616 774.689L514.23 826.164" stroke="#FF0000" stroke-width="29.3904" stroke-linecap="round" stroke-linejoin="round"/>
<path d="M1065.42 913.86L1190.16 966.655" stroke="#FF0000" stroke-width="29.3904" stroke-linecap="round" stroke-linejoin="round"/>
<path d="M1277.59 1446.37L1330.91 1320.39" stroke="#FF0000" stroke-width="29.3904" stroke-linecap="round" stroke-linejoin="round"/>
<path d="M514.854 826.429L566.065 705.439" stroke="#FF0000" stroke-width="29.3904" stroke-linecap="round" stroke-linejoin="round"/>
<path d="M801.941 1538.09L749.938 1660.96" stroke="#0047FF" stroke-width="29.3904" stroke-linecap="round" stroke-linejoin="round"/>
<path d="M783.423 1236.1L604.781 1307.2" stroke="#0047FF" stroke-width="29.3904" stroke-linecap="round" stroke-linejoin="round"/>
<path d="M657.84 1181.84L783.819 1235.16" stroke="#0047FF" stroke-width="29.3904" stroke-linecap="round" stroke-linejoin="round"/>
<path d="M657.707 1182.15L605.704 1305.01" stroke="#0047FF" stroke-width="29.3904" stroke-linecap="round" stroke-linejoin="round"/>
<path d="M212.331 846.194L390.972 775.097" stroke="#0047FF" stroke-width="29.3904" stroke-linecap="round" stroke-linejoin="round"/>
<path d="M333.681 898.293L212.067 846.818" stroke="#0047FF" stroke-width="29.3904" stroke-linecap="round" stroke-linejoin="round"/>
<path d="M335.552 899.085L386.763 778.095" stroke="#0047FF" stroke-width="29.3904" stroke-linecap="round" stroke-linejoin="round"/>
<path d="M159.271 971.55L230.585 1148.81" stroke="#0047FF" stroke-width="29.3904" stroke-linecap="round" stroke-linejoin="round"/>
<path d="M567.84 704.719L638.074 879.319" stroke="#0047FF" stroke-width="29.3904" stroke-linecap="round" stroke-linejoin="round"/>
<path d="M566.857 703.568L390.974 775.097" stroke="#0047FF" stroke-width="29.3904" stroke-linecap="round" stroke-linejoin="round"/>
<path d="M887.801 984.285L710.898 1056.49" stroke="#0047FF" stroke-width="29.3904" stroke-linecap="round" stroke-linejoin="round"/>
<path d="M282.758 1023.82L105.855 1096.02" stroke="#FF0000" stroke-width="29.3904" stroke-linecap="round" stroke-linejoin="round"/>
<path d="M1102.41 1517.09L925.916 1590.94" stroke="#FF0000" stroke-width="29.3904" stroke-linecap="round" stroke-linejoin="round"/>
<path d="M1278.12 1445.12L1101.21 1517.32" stroke="#FF0000" stroke-width="29.3904" stroke-linecap="round" stroke-linejoin="round"/>
<path d="M690.605 755.211L514.853 826.428" stroke="#FF0000" stroke-width="29.3904" stroke-linecap="round" stroke-linejoin="round"/>
<path d="M978.087 1465.94L1048.68 1641.43" stroke="#FF0000" stroke-width="29.3904" stroke-linecap="round" stroke-linejoin="round"/>
<path d="M691.852 755.739L763.429 932.378" stroke="#FF0000" stroke-width="29.3904" stroke-linecap="round" stroke-linejoin="round"/>
<path d="M763.43 932.378L835.63 1109.28" stroke="#FF0000" stroke-width="29.3904" stroke-linecap="round" stroke-linejoin="round"/>
<path d="M1331.53 1320.65L1154.63 1392.85" stroke="#0047FF" stroke-width="29.3904" stroke-linecap="round" stroke-linejoin="round"/>
<path d="M159.272 971.55L212.067 846.818" stroke="#0047FF" stroke-width="29.3904" stroke-linecap="round" stroke-linejoin="round"/>
<path d="M282.757 1023.82L335.552 899.085" stroke="#0047FF" stroke-width="29.3904" stroke-linecap="round" stroke-linejoin="round"/>
<path d="M763.692 931.755L815.695 808.894" stroke="#0047FF" stroke-width="29.3904" stroke-linecap="round" stroke-linejoin="round"/>
<path d="M1049.47 1639.56L1101.74 1516.07" stroke="#0047FF" stroke-width="29.3904" stroke-linecap="round" stroke-linejoin="round"/>
<path d="M1226.38 1567.36L1277.85 1445.74" stroke="#0047FF" stroke-width="29.3904" stroke-linecap="round" stroke-linejoin="round"/>
<path d="M923.422 1589.88L1048.15 1642.68" stroke="#0047FF" stroke-width="29.3904" stroke-linecap="round" stroke-linejoin="round"/>
<path d="M1013.16 1037.34L1137.89 1090.14" stroke="#0047FF" stroke-width="29.3904" stroke-linecap="round" stroke-linejoin="round"/>
<path d="M763.692 931.755L887.8 984.286" stroke="#0047FF" stroke-width="29.3904" stroke-linecap="round" stroke-linejoin="round"/>
<path d="M690.605 755.211L815.961 808.27" stroke="#0047FF" stroke-width="29.3904" stroke-linecap="round" stroke-linejoin="round"/>
<path d="M1154.37 1393.48L1277.85 1445.74" stroke="#0047FF" stroke-width="29.3904" stroke-linecap="round" stroke-linejoin="round"/>
<path d="M1145.76 465.618L1226.43 258.271" stroke="#0047FF" stroke-width="29.3904" stroke-linecap="round" stroke-linejoin="round"/>
<path d="M1858.23 504.712L1922.64 652.166" stroke="#FF0000" stroke-width="29.3904" stroke-linecap="round" stroke-linejoin="round"/>
<path d="M2066.72 584.015L2131.13 731.468" stroke="#FF0000" stroke-width="29.3904" stroke-linecap="round" stroke-linejoin="round"/>
<path d="M1063.31 672.872L1208.25 608.683" stroke="#0047FF" stroke-width="29.3904" stroke-linecap="round" stroke-linejoin="round"/>
<path d="M1543.78 982.807L1691.24 918.399" stroke="#0047FF" stroke-width="29.3904" stroke-linecap="round" stroke-linejoin="round"/>
<path d="M1628.1 773.867L1775.56 709.459" stroke="#0047FF" stroke-width="29.3904" stroke-linecap="round" stroke-linejoin="round"/>
<path d="M1190.12 965.177L1337.58 900.769" stroke="#0047FF" stroke-width="29.3904" stroke-linecap="round" stroke-linejoin="round"/>
<path d="M1917.58 646.552L2065.03 582.144" stroke="#0047FF" stroke-width="29.3904" stroke-linecap="round" stroke-linejoin="round"/>
<path d="M1146.27 462.789L1290.8 399.657" stroke="#0047FF" stroke-width="29.3904" stroke-linecap="round" stroke-linejoin="round"/>
<path d="M2114.41 1081.25L2261.87 1016.84" stroke="#0047FF" stroke-width="29.3904" stroke-linecap="round" stroke-linejoin="round"/>
<path d="M1581.23 274.532L1727.39 211.144" stroke="#FF0000" stroke-width="29.3904" stroke-linecap="round" stroke-linejoin="round"/>
<path d="M1859.37 503.346L2005.53 439.958" stroke="#FF0000" stroke-width="29.3904" stroke-linecap="round" stroke-linejoin="round"/>
<path d="M1483.66 835.219L1621.93 775.664" stroke="#FF0000" stroke-width="29.3904" stroke-linecap="round" stroke-linejoin="round"/>
<path d="M1983.86 792.318L2130.02 728.931" stroke="#FF0000" stroke-width="29.3904" stroke-linecap="round" stroke-linejoin="round"/>
<path d="M1380.8 1401.7L1526.96 1338.31" stroke="#FF0000" stroke-width="29.3904" stroke-linecap="round" stroke-linejoin="round"/>
<path d="M2029.18 1294.07L2175.34 1230.68" stroke="#FF0000" stroke-width="29.3904" stroke-linecap="round" stroke-linejoin="round"/>
<path d="M2049.5 936.626L2195.66 873.238" stroke="#FF0000" stroke-width="29.3904" stroke-linecap="round" stroke-linejoin="round"/>
<path d="M1941.69 291.802L2006.1 439.255" stroke="#0047FF" stroke-width="29.3904" stroke-linecap="round" stroke-linejoin="round"/>
<path d="M1062.58 673.192L1126.99 820.645" stroke="#0047FF" stroke-width="29.3904" stroke-linecap="round" stroke-linejoin="round"/>
<path d="M1188.85 962.257L1253.26 1109.71" stroke="#0047FF" stroke-width="29.3904" stroke-linecap="round" stroke-linejoin="round"/>
<path d="M1920.73 647.786L1982.9 790.129" stroke="#0047FF" stroke-width="29.3904" stroke-linecap="round" stroke-linejoin="round"/>
<path d="M1401.48 1051.05L1463.46 1193.35" stroke="#0047FF" stroke-width="29.3904" stroke-linecap="round" stroke-linejoin="round"/>
<path d="M1318.39 1256.84L1381.11 1402.43" stroke="#0047FF" stroke-width="29.3904" stroke-linecap="round" stroke-linejoin="round"/>
<path d="M1744.44 1426.27L1804.06 1562.77" stroke="#0047FF" stroke-width="29.3904" stroke-linecap="round" stroke-linejoin="round"/>
<path d="M2130.49 730.009L2193.3 873.812" stroke="#0047FF" stroke-width="29.3904" stroke-linecap="round" stroke-linejoin="round"/>
<path d="M2047.63 938.312L2173.58 1226.65" stroke="#0047FF" stroke-width="29.3904" stroke-linecap="round" stroke-linejoin="round"/>
<path d="M1527.43 1339.39L1589.6 1481.73" stroke="#FF0000" stroke-width="29.3904" stroke-linecap="round" stroke-linejoin="round"/>
<path d="M1229.26 258.773L1289.84 397.466" stroke="#FF0000" stroke-width="29.3904" stroke-linecap="round" stroke-linejoin="round"/>
<path d="M1144.49 462.697L1208.9 610.15" stroke="#FF0000" stroke-width="29.3904" stroke-linecap="round" stroke-linejoin="round"/>
<path d="M1520.61 129.773L1583.42 273.577" stroke="#FF0000" stroke-width="29.3904" stroke-linecap="round" stroke-linejoin="round"/>
<path d="M1125.4 816.994L1189.8 964.447" stroke="#FF0000" stroke-width="29.3904" stroke-linecap="round" stroke-linejoin="round"/>
<path d="M1335.8 900.676L1400.2 1048.13" stroke="#FF0000" stroke-width="29.3904" stroke-linecap="round" stroke-linejoin="round"/>
<path d="M1627.46 772.407L1691.24 918.4" stroke="#FF0000" stroke-width="29.3904" stroke-linecap="round" stroke-linejoin="round"/>
<path d="M2029.27 1292.29L2093.68 1439.74" stroke="#FF0000" stroke-width="29.3904" stroke-linecap="round" stroke-linejoin="round"/>
<path d="M1401.12 1044.25L1481.79 836.907" stroke="#0047FF" stroke-width="29.3904" stroke-linecap="round" stroke-linejoin="round"/>
<path d="M1839.42 853.672L1917.9 647.282" stroke="#0047FF" stroke-width="29.3904" stroke-linecap="round" stroke-linejoin="round"/>
<path d="M1947.14 1500.27L2027.81 1292.93" stroke="#0047FF" stroke-width="29.3904" stroke-linecap="round" stroke-linejoin="round"/>
<path d="M2093.68 1439.74L2179.46 1230.16" stroke="#0047FF" stroke-width="29.3904" stroke-linecap="round" stroke-linejoin="round"/>
<path d="M2181.83 1225.65L2262.5 1018.3" stroke="#0047FF" stroke-width="29.3904" stroke-linecap="round" stroke-linejoin="round"/>
<path d="M1434.83 339.351L1520.61 129.773" stroke="#0047FF" stroke-width="29.3904" stroke-linecap="round" stroke-linejoin="round"/>
<path d="M1062.99 672.142L1143.67 464.795" stroke="#FF0000" stroke-width="29.3904" stroke-linecap="round" stroke-linejoin="round"/>
<path d="M1188.95 966.673L1270.48 757.099" stroke="#FF0000" stroke-width="29.3904" stroke-linecap="round" stroke-linejoin="round"/>
<path d="M1691.87 919.859L1774.73 711.556" stroke="#FF0000" stroke-width="29.3904" stroke-linecap="round" stroke-linejoin="round"/>
<path d="M2114.73 1081.98L2195.4 874.634" stroke="#FF0000" stroke-width="29.3904" stroke-linecap="round" stroke-linejoin="round"/>
<path d="M1805.02 1564.96L1885.69 1357.61" stroke="#FF0000" stroke-width="29.3904" stroke-linecap="round" stroke-linejoin="round"/>
<path d="M1319.22 1254.75L1399.89 1047.4" stroke="#FF0000" stroke-width="29.3904" stroke-linecap="round" stroke-linejoin="round"/>
<path d="M1886.74 1358.02L2093.68 1439.74" stroke="#FF0000" stroke-width="29.3904" stroke-linecap="round" stroke-linejoin="round"/>
<path d="M1595.48 1485.24L1802.42 1566.96" stroke="#FF0000" stroke-width="29.3904" stroke-linecap="round" stroke-linejoin="round"/>
<path d="M1731.06 213.569L1939.67 290.905" stroke="#FF0000" stroke-width="29.3904" stroke-linecap="round" stroke-linejoin="round"/>
<path d="M1773.78 709.365L1983.86 792.318" stroke="#FF0000" stroke-width="29.3904" stroke-linecap="round" stroke-linejoin="round"/>
<path d="M1292.58 399.75L1375.98 194.685" stroke="#FF0000" stroke-width="29.3904" stroke-linecap="round" stroke-linejoin="round"/>
<path d="M1433.37 339.989L1228.62 257.313" stroke="#FF0000" stroke-width="29.3904" stroke-linecap="round" stroke-linejoin="round"/>
<path d="M1582.92 276.404L1375.98 194.685" stroke="#0047FF" stroke-width="29.3904" stroke-linecap="round" stroke-linejoin="round"/>
<path d="M1727.54 211.492L1520.61 129.773" stroke="#0047FF" stroke-width="29.3904" stroke-linecap="round" stroke-linejoin="round"/>
<path d="M1542.73 982.396L1335.8 900.677" stroke="#0047FF" stroke-width="29.3904" stroke-linecap="round" stroke-linejoin="round"/>
<path d="M1946.41 1500.59L1743.16 1423.35" stroke="#0047FF" stroke-width="29.3904" stroke-linecap="round" stroke-linejoin="round"/>
<path d="M2065.76 581.825L1857.91 503.982" stroke="#0047FF" stroke-width="29.3904" stroke-linecap="round" stroke-linejoin="round"/>
<path d="M1591.83 1486.84L1382.48 1403.57" stroke="#0047FF" stroke-width="29.3904" stroke-linecap="round" stroke-linejoin="round"/>
<path d="M1730.37 211.997L1793.51 356.53" stroke="#0047FF" stroke-width="29.3904" stroke-linecap="round" stroke-linejoin="round"/>
<path d="M1793.5 356.529L1940.96 292.121" stroke="#0047FF" stroke-width="29.3904" stroke-linecap="round" stroke-linejoin="round"/>
<path d="M1593.29 1486.2L1740.75 1421.79" stroke="#0047FF" stroke-width="29.3904" stroke-linecap="round" stroke-linejoin="round"/>
<path d="M1318.71 1257.57L1463.66 1193.39" stroke="#FF0000" stroke-width="29.3904" stroke-linecap="round" stroke-linejoin="round"/>
</svg>
