<svg width="5175" height="760" viewBox="0 0 5175 760" fill="none" xmlns="http://www.w3.org/2000/svg">
<path d="M3633.25 256.942H3718.83M3459.47 502.24H3547.23M3459.47 584.554H3547.23L3459.47 503.063V422.808M3456.44 667.687H3544.19M3720.57 667.687H3804.42M3720.14 173.806H3807.89M3461.21 255.291H3547.23M3459.47 174.634L3546.36 174.216M3459.47 10L3546.36 10M3545.49 421.571H3633.25M3457.74 749.996H3545.49M3547.23 338.429H3459.47V256.939M3372.59 90.6683L3372.59 10.0013M3546.36 255.291V174.212M3720.14 667.687V586.196M3459.47 421.155L3544.19 421.37M3721.88 92.3183L3808.76 92.5338M3371.72 667.687H3459.47M3459.47 585.371V749.998M3457.74 750L3371.72 667.687M3543.75 336.37L3459.47 255.291M3546.36 336.787V419.923M3720.14 92.7258V175.862M3546.36 10V89.8439M3459.47 92.3183V174.632M3633.25 419.918V503.055M3720.14 175.453V258.589M3633.25 338.429V421.565M3546.36 586.196V749.999M3633.67 421.152L3547.67 340.062M3546.36 749.996L3459.47 668.506M3372.58 91.4956L3287 10.0054M3457.73 91.4956L3373.02 10.0054M3808.77 92.3183L3723.18 10.8281M3633.25 337.199L3546.36 254.474M3631.08 503.468L3543.75 421.978M3633.25 583.729L3718.84 502.239M3633.25 504.711L3718.84 423.221M3722.31 749.588L3805.72 667.686M3459.47 421.984L3633.25 254.476M3459.47 174.634L3546.36 90.674M3720.14 91.4956L3805.72 10.0054M3372.59 91.4956L3459.47 10.0054M3633.25 338.429L3720.14 258.585M3631.95 255.291L3718.84 174.624M3458.6 92.3183L3546.36 10.005M3546.36 89.8442L3461.65 10.0003M3807.89 173.806L3721.44 92.7274M3718.83 502.24L3633.25 420.75M3805.86 668.086L3631.08 504.056M3805.72 749.996L3720.14 668.506M3459.47 584.137L3547.23 502.235" stroke="#171717" stroke-width="18.6838" stroke-linecap="round" stroke-linejoin="round"/>
<path d="M9.82324 337.541H92.0793M91.256 666.93H9M9 666.93V749.174H91.256L9 666.93ZM9.82324 173.46V255.499L92.0793 337.95M92.0793 337.95V255.499M92.0793 337.95L174.541 255.499M92.0793 337.95L9.82324 419.989L92.0793 502.234V584.479M9 502.443V584.688M92.0784 173.462V92.2449L9.6167 10V92.2449L90.8445 10M255.77 255.704V337.949L338.026 255.704M420.278 337.95H502.534L420.278 420.195V502.44H502.534V420.195M420.278 584.686V666.93H502.534M502.534 666.93V584.686L420.278 666.519M502.534 666.93L420.278 749.175M502.534 666.93V749.175M92.0793 92.2425L9.82324 173.254M92.0786 420.4L9 502.439M92.0786 585.099L9 667.138M92.078 255.292L172.895 337.332M255.768 255.292L338.024 337.949L420.28 255.704H338.024M420.282 255.704L502.538 337.949M420.282 337.95L502.538 420.195M420.282 667.755L502.538 750M9.41406 173.874H92.0814M9.82324 255.292H92.0793M92.0786 584.686H9L9 665.697M9 503.262H92.0786M173.513 337.95H255.769M174.75 255.292H255.772M420.278 256.943L420.278 337.954M174.749 257.352L174.75 338.363M502.534 503.056L420.278 584.89M420.278 502.85V583.45" stroke="#171717" stroke-width="17.6877" stroke-linecap="round" stroke-linejoin="round"/>
<path d="M903.588 667.596H986.666M902.354 586.421H985.433M1148.92 587.45L1068.51 668.825M1066.87 586.421H1149.95M1068.51 668.005V504.432M1068.51 586.836L985.428 669.035M1068.51 586.421H985.428V667.59M738.05 588.068L656 504.839M738.458 588.068V504.839H657.435M1068.51 94.4691L1068.51 174.814M1149.94 504.432L1149.94 586.837M902.354 749.586H985.433M1068.51 175.224H1148.3M902.974 422.847L820.924 339.618M903.588 339.618V422.847M903.38 339.618L822.358 339.618M985.842 10.4114L1067.89 93.6405M985.428 90.7566V10.4117M985.428 91.993H1065.22M820.92 92.409L903.175 10.4161H985.431M1149.12 176.051L1068.1 256.808M1149.53 175.224L1067.89 93.6433M1068.51 421.613L986.255 339.62M820.92 10L903.175 91.993H985.431M821.33 668.212L738.252 586.837M903.175 749.586L820.92 667.593M1068.51 175.219L1149.94 256.8L1149.94 339.617M820.506 586.427L739.073 667.596M1149.94 257.625L1068.1 339.618M1068.1 339.618L986.255 422.022M985.431 750L903.175 668.007M1149.53 339.618H1068.51L1068.51 421.611M740.313 667.596H821.747M822.563 749.586H902.763M738.252 585.185V667.59M902.768 668.005V749.586M1068.51 422.022V504.427H1149.94L1068.51 422.022ZM985.428 422.022L985.428 339.617H903.172L985.428 422.022ZM656.407 174.81L738.663 174.81V92.4049L656.407 174.81ZM738.666 92.4056H820.922V10.0006L738.666 92.4056ZM820.92 667.596H902.764L902.353 586.427L820.92 667.596Z" stroke="#171717" stroke-width="17.6877" stroke-linecap="round" stroke-linejoin="round"/>
<path d="M1386.49 256.807V177.55M1386.08 586.148L1303.41 502.786L1303.41 421.476M1717.78 668.687L1632.03 584.503L1632.03 503.604M1714.9 256.803L1632.03 175.904M1550.39 339.348L1468.34 256.395M1303.41 177.545L1386.49 94.593M1632.03 175.083L1714.08 93.5683M1386.08 339.348L1468.13 256.395M1550.6 339.759L1632.65 256.807M1303.64 422.094L1385.79 504.11M1303.82 10.8215L1385.87 93.7737M1303.41 93.7737L1303.41 10.8215M1713.87 92.9522L1632.03 10M1714.08 10L1714.08 92.9522M1797.77 586.146L1719.63 668.893M1715.1 585.74H1798.18M1632.03 339.351H1715.11M1550.6 339.755V255.571H1471.63M1386.49 177.547H1303.41M1715.1 257.215L1715.1 340.167M1713.87 257.215L1632.85 257.215M1303 667.046H1386.08L1386.08 586.147M1718.4 750H1797.36V669.101M1386.08 255.982H1303M1386.08 338.525V421.478M1384.02 338.525L1303 338.525M1713.46 503.61H1632.03L1714.28 422.711L1714.28 503.61M1797.36 669.509L1718.4 749.997M1714.69 585.946L1632.03 666.845M1718.4 669.101H1797.36M1303 255.98L1385.05 338.932M1303 338.525L1303 255.984M1385.26 255.982L1468.34 337.908M1471.22 255.571H1385.26M1386.49 177.545L1303.41 94.593H1386.49M1713.72 174.416L1632.18 94.0318M1303.41 585.327L1386.08 504.428M1632.02 422.505L1715.1 340.579M1632.03 175.084H1714.28M1386.08 421.473L1303.41 421.473M1386.08 10.8196L1303.41 10.8196M1714.28 10L1632.03 10M1632.03 256.807L1632.03 175.908" stroke="#171717" stroke-width="17.6877" stroke-linecap="round" stroke-linejoin="round"/>
<path d="M2202.24 175.121L2117.93 93.5776M2200.59 582.427L2117.92 502.107L2038.13 418.934M2202.24 503.74L2116.28 422.605M2036.9 499.663L1953 418.935M2119.16 582.632H2202.23M2202.24 668.457L2117.92 750M2285.32 420.974L2202.24 502.314M2119.98 418.524L2037.73 500.475M2119.16 668.053H2202.23M2201.83 94.8017L2117.92 12.0353M2202.24 12.4405V94.7991M2202.23 338.613L2119.16 419.341M2119.16 338.205H2202.23M2366.75 93.1677H2449.83M2366.75 12.4405L2283.67 93.7798M2283.67 12.0353H2366.75M2202.24 12.0353H2285.32M2120.81 93.5776L2202.24 93.5776M2118.34 256.253H2200.18M2366.75 11.6268V93.9854M2285.31 422.198V500.887M2283.67 12.4405V94.7991M2447.96 10.0041L2366.75 93.9853M2450.24 92.9699L2448.37 10M2202.24 257.478L2117.92 338.206M2202.23 175.119L2117.92 256.255M2202.24 94.8022L2117.92 175.122M2198.72 10.81L2117.92 93.1687M2202.24 338.205V257.477M2367.57 421.377L2286.96 502.92M2202.24 420.563L2117.93 502.106M2285.31 421.049L2368.29 420.158M2117.92 749.998H2201M2286.96 502.927H2202.24L2202.24 749.595M1953 418.524H2037.72M2119.91 666.307L2200.37 582.427M2117.93 175.12L2202.24 257.479M2200.59 12.6445L2283.67 95.0032M2117.92 582.427V668.048M2037.73 419.746L2037.65 500.459" stroke="#171717" stroke-width="17.6877" stroke-linecap="round" stroke-linejoin="round"/>
<path d="M2780.26 667.507L2867.9 749.182M2867.02 10.4154H2955.53M2867.9 585.013H2954.21M2605.88 422.075V586.244M2697.02 92.0904H2780.27M2605 175.817L2605 256.671M3044.04 92.9101V175.816M2606.76 175.817H2690.45M2606.76 420.841H2692.64M2606.76 586.244H2692.64M2780.27 667.093H2693.51L2693.51 586.24M2955.53 667.093H3044.03M3044.04 502.924H3132.54M2955.53 584.599V667.505M3044.04 503.336V586.242M2692.63 339.573L2692.63 256.667H2605M2692.63 422.075L2692.63 338.758M3044.04 667.506V588.704M3130.79 175.813L3044.91 255.436M3043.16 11.6482L2958.15 91.2708M2782.02 11.2365L2695.26 92.0905M2695.26 92.0897L2605 175.817M2692.63 422.071L2606.75 505.387M2867.02 585.01L2780.27 667.506M2955.53 669.146L2868.77 750M3044.91 586.652L2958.16 667.506M3132.54 502.923L3044.47 587.057M2780.26 667.506L2693.95 586.241M2692.63 667.093L2605.88 586.24M2692.63 256.675L2606.75 338.76M2781.14 92.0897L2691.32 175.817M2865.27 10L2781.16 92.0766M3044.04 175.815L3130.79 255.848M2955.53 10.4137L3044.91 92.5644M2782.02 11.2349L2867.9 91.6784M2605.88 420.839L2693.51 502.924M2781.14 586.239L2867.9 665.862M3131.67 174.997L3044.91 92.5014M2606.76 338.76H2692.64M2867.9 91.2708V10.4169M3045.35 174.997L3131.67 174.997M2867.9 665.862H2958.16" stroke="#171717" stroke-width="18.8436" stroke-linecap="round" stroke-linejoin="round"/>
<path d="M4221.78 583.141L4306.74 501.967M4050.55 499.918L4133.79 420.794M4308.04 257.625L4395.16 257.625M4137.24 91.9942L4223.07 91.9942M4308.04 501.968H4395.16M3965.16 666.777H4049.26M4054.43 501.148L4306.74 501.148M4393.86 666.777H4306.74L4221.78 747.95M4398.61 419.976L4474.09 419.976M3963.86 583.555L4050.12 583.769M4136.81 420.383L4223.07 420.598M4221.78 667.814L4135.52 667.599L4135.52 748.363M4049.26 748.363L4135.52 748.773M4396.45 584.784V666.369M4221.78 420.792L4221.78 501.966M4308.04 173.172L4308.04 257.626M4135.52 420.383L4135.52 500.738M4049.26 501.968L4049.26 584.782M4049.26 747.949L4049.26 665.135L3966.02 585.601M4308.04 667.185L4308.04 750M4395.16 259.675L4395.16 342.489M4395.59 501.968L4479.69 421.614M4311.49 582.321L4396.45 501.146M4137.24 748.771L4221.78 668.416M3964.29 665.951L4049.26 584.777M4396.46 666.369L4481.42 585.195M4224.37 93.2302L4135.52 10.0061M4480.56 502.784L4395.59 421.61M4049.26 747.95L3964.29 666.776M4481.42 583.962L4396.45 502.788M4396.02 584.784L4480.99 503.61M3963.86 583.962L4048.83 502.788M4308.04 750L4396.02 667.596M4049.26 91.9942L4135.52 10M4135.52 91.5869L4049.26 10.0027M4306.74 582.733L4221.78 501.558M4480.12 421.611L4395.16 340.437M4393 339.617L4308.04 258.443M4308.04 501.561L4223.07 420.387M4306.74 749.586L4221.78 668.412M4395.16 343.718L4395.16 421.612M3963 91.9942L4049.26 91.9942L4049.26 10L3963 91.9942ZM4223.07 91.1782V173.172L4308.04 173.172L4223.07 91.1782Z" stroke="#171717" stroke-width="17.6877" stroke-linecap="round" stroke-linejoin="round"/>
<path d="M4723.75 91.626L4810.19 10M5074.76 257.77V341.045M5162.51 338.574V421.849M4636.44 172.843L4723.75 172.426M4810.63 419.371H4899.26M4899.26 337.747H4987.89M4636 337.747H4724.63M5073.44 337.332H5162.07M4724.63 90.3905H4811.5M5076.95 584.275H5165.58M4985.69 91.2188L5073.44 91.4347M5075.64 257.357L5163.39 257.573M4812.82 336.92L4895.75 337.32M5074.76 420.198L5162.51 420.413M4636.44 503.059L4723.75 502.646M4636 584.275L4723.75 584.491M4987.01 667.543L5074.76 667.759M5076.08 502.232L5163.83 502.448M5163.83 174.078V257.353M4636 172.843L4636 256.118M4636 336.092L4636 419.367M5074.76 338.574V418.963M4723.75 422.255L4723.75 505.53M4636.44 502.645L4636 584.683M4814.14 671.254V748.345M5162.51 421.02V502.234M5074.76 502.645V665.485M4723.75 585.096V665.485M4811.5 10.8226V89.1506M4723.75 89.9833L4723.75 173.258M4987.01 10.002V91.2158M4636 254.055L4636 337.33M4723.75 420.607L4723.75 337.332L4810.19 418.958M4899.26 336.92V419.371M4987.45 666.721V749.996L4901.01 668.37M4725.07 418.958L4811.5 337.332M4988.32 419.371L5073.44 337.745M4900.13 748.347L4986.57 666.721M4987.45 750L5076.95 668.374M5079.15 666.721L5165.58 585.095M4897.5 91.626L4987.01 10L5073.44 91.626M4636.44 172.434L4722.87 90.808M4636 337.332L4722.44 255.706M4899.25 420.198L4987.01 338.572M5076.96 584.684L5163.39 503.058M4814.14 749.585L4900.57 667.959M4637.32 501.823L4723.75 420.197M4725.94 668.37L4812.38 749.996M5074.76 93.3393L5163.01 173.234M4987.01 337.332L5074.76 420.195M4812.38 90.8055L4899.69 10.8285L4986.13 92.4543M4896.62 91.626L4811.5 10M4899.69 748.347L4814.14 669.606M5162.51 337.332L5074.76 257.355M4723.75 668.37L4636.44 585.507M5074.76 92.4543V174.08M5074.76 174.078H5163.39M4724.63 668.37H4813.26" stroke="#171717" stroke-width="17.6877" stroke-linecap="round" stroke-linejoin="round"/>
</svg>
