<svg width="153" height="1427" viewBox="0 0 153 1427" fill="none" xmlns="http://www.w3.org/2000/svg">
<path d="M142.951 118.99L9.99986 235.322" stroke="#171717" stroke-width="20" stroke-linecap="round" stroke-linejoin="round"/>
<path d="M142.951 304.99L9.99986 421.322" stroke="#171717" stroke-width="20" stroke-linecap="round" stroke-linejoin="round"/>
<path d="M142.951 242.99L9.99986 359.322" stroke="#171717" stroke-width="20" stroke-linecap="round" stroke-linejoin="round"/>
<path d="M142.951 180.99L9.99986 297.322" stroke="#171717" stroke-width="20" stroke-linecap="round" stroke-linejoin="round"/>
<path d="M142.951 56.9898L9.99986 173.322" stroke="#171717" stroke-width="20" stroke-linecap="round" stroke-linejoin="round"/>
<path d="M142.951 428.99L9.99986 545.322" stroke="#171717" stroke-width="20" stroke-linecap="round" stroke-linejoin="round"/>
<path d="M142.951 614.99L9.99986 731.322" stroke="#171717" stroke-width="20" stroke-linecap="round" stroke-linejoin="round"/>
<path d="M142.951 552.99L9.99986 669.322" stroke="#171717" stroke-width="20" stroke-linecap="round" stroke-linejoin="round"/>
<path d="M142.951 490.99L9.99986 607.322" stroke="#171717" stroke-width="20" stroke-linecap="round" stroke-linejoin="round"/>
<path d="M142.951 366.99L9.99986 483.322" stroke="#171717" stroke-width="20" stroke-linecap="round" stroke-linejoin="round"/>
<path d="M142.951 800.99L9.99986 917.322" stroke="#171717" stroke-width="20" stroke-linecap="round" stroke-linejoin="round"/>
<path d="M142.951 738.99L9.99986 855.322" stroke="#171717" stroke-width="20" stroke-linecap="round" stroke-linejoin="round"/>
<path d="M142.951 676.99L9.99986 793.322" stroke="#171717" stroke-width="20" stroke-linecap="round" stroke-linejoin="round"/>
<path d="M142.951 924.99L9.99986 1041.32" stroke="#171717" stroke-width="20" stroke-linecap="round" stroke-linejoin="round"/>
<path d="M142.951 1110.99L9.99986 1227.32" stroke="#171717" stroke-width="20" stroke-linecap="round" stroke-linejoin="round"/>
<path d="M142.951 1048.99L9.99986 1165.32" stroke="#171717" stroke-width="20" stroke-linecap="round" stroke-linejoin="round"/>
<path d="M142.951 986.99L9.99986 1103.32" stroke="#171717" stroke-width="20" stroke-linecap="round" stroke-linejoin="round"/>
<path d="M142.951 862.99L9.99986 979.322" stroke="#171717" stroke-width="20" stroke-linecap="round" stroke-linejoin="round"/>
<path d="M142.951 1234.99L9.99986 1351.32" stroke="#171717" stroke-width="20" stroke-linecap="round" stroke-linejoin="round"/>
<path d="M142.951 1296.99L9.99986 1413.32" stroke="#171717" stroke-width="20" stroke-linecap="round" stroke-linejoin="round"/>
<path d="M142.951 1172.99L9.99986 1289.32" stroke="#171717" stroke-width="20" stroke-linecap="round" stroke-linejoin="round"/>
<path fill-rule="evenodd" clip-rule="evenodd" d="M122.039 0L3.41508 103.796C-0.741279 107.433 -1.16245 113.751 2.47438 117.907C6.1112 122.063 12.4288 122.484 16.5852 118.848L149.536 2.51552C150.383 1.77462 151.074 0.922472 151.608 0H122.039Z" fill="#171717"/>
<path fill-rule="evenodd" clip-rule="evenodd" d="M51.182 0L3.41508 41.7961C-0.741279 45.4329 -1.16245 51.7506 2.47438 55.9069C6.1112 60.0633 12.4288 60.4845 16.5852 56.8476L81.5538 0H51.182Z" fill="#171717"/>
<path fill-rule="evenodd" clip-rule="evenodd" d="M149.536 1366.52C153.692 1362.88 154.113 1356.56 150.476 1352.4C146.839 1348.25 140.522 1347.83 136.365 1351.46L51.1816 1426H81.5535L149.536 1366.52Z" fill="#171717"/>
<path fill-rule="evenodd" clip-rule="evenodd" d="M151.608 1426C153.696 1422.39 153.373 1417.71 150.477 1414.4C146.84 1410.25 140.522 1409.83 136.366 1413.46L122.039 1426H151.608Z" fill="#171717"/>
</svg>
