<svg width="154" height="1941" viewBox="0 0 154 1941" fill="none" xmlns="http://www.w3.org/2000/svg">
<path d="M143.811 694.99L10.8602 811.322" stroke="#171717" stroke-width="20" stroke-linecap="round" stroke-linejoin="round"/>
<path d="M143.811 880.99L10.8602 997.322" stroke="#171717" stroke-width="20" stroke-linecap="round" stroke-linejoin="round"/>
<path d="M143.811 818.99L10.8602 935.322" stroke="#171717" stroke-width="20" stroke-linecap="round" stroke-linejoin="round"/>
<path d="M143.811 756.99L10.8602 873.322" stroke="#171717" stroke-width="20" stroke-linecap="round" stroke-linejoin="round"/>
<path d="M143.811 632.99L10.8602 749.322" stroke="#171717" stroke-width="20" stroke-linecap="round" stroke-linejoin="round"/>
<path d="M143.811 1004.99L10.8602 1121.32" stroke="#171717" stroke-width="20" stroke-linecap="round" stroke-linejoin="round"/>
<path d="M143.811 1190.99L10.8602 1307.32" stroke="#171717" stroke-width="20" stroke-linecap="round" stroke-linejoin="round"/>
<path d="M143.811 1128.99L10.8602 1245.32" stroke="#171717" stroke-width="20" stroke-linecap="round" stroke-linejoin="round"/>
<path d="M143.811 1066.99L10.8602 1183.32" stroke="#171717" stroke-width="20" stroke-linecap="round" stroke-linejoin="round"/>
<path d="M143.811 942.99L10.8602 1059.32" stroke="#171717" stroke-width="20" stroke-linecap="round" stroke-linejoin="round"/>
<path d="M143.812 74.9898L10.8612 191.322" stroke="#171717" stroke-width="20" stroke-linecap="round" stroke-linejoin="round"/>
<path d="M143.951 260.99L10.9999 377.322" stroke="#171717" stroke-width="20" stroke-linecap="round" stroke-linejoin="round"/>
<path d="M143.812 198.99L10.8612 315.322" stroke="#171717" stroke-width="20" stroke-linecap="round" stroke-linejoin="round"/>
<path d="M143.812 136.99L10.8612 253.322" stroke="#171717" stroke-width="20" stroke-linecap="round" stroke-linejoin="round"/>
<path d="M143.812 12.9898L10.8612 129.322" stroke="#171717" stroke-width="20" stroke-linecap="round" stroke-linejoin="round"/>
<path d="M143.812 384.99L10.8612 501.322" stroke="#171717" stroke-width="20" stroke-linecap="round" stroke-linejoin="round"/>
<path d="M143.812 570.99L10.8612 687.322" stroke="#171717" stroke-width="20" stroke-linecap="round" stroke-linejoin="round"/>
<path d="M143.812 508.99L10.8612 625.322" stroke="#171717" stroke-width="20" stroke-linecap="round" stroke-linejoin="round"/>
<path d="M143.812 446.99L10.8612 563.322" stroke="#171717" stroke-width="20" stroke-linecap="round" stroke-linejoin="round"/>
<path d="M143.812 322.99L10.8612 439.322" stroke="#171717" stroke-width="20" stroke-linecap="round" stroke-linejoin="round"/>
<path d="M143.811 1314.99L10.8602 1431.32" stroke="#171717" stroke-width="20" stroke-linecap="round" stroke-linejoin="round"/>
<path d="M143.811 1500.99L10.8602 1617.32" stroke="#171717" stroke-width="20" stroke-linecap="round" stroke-linejoin="round"/>
<path d="M143.811 1438.99L10.8602 1555.32" stroke="#171717" stroke-width="20" stroke-linecap="round" stroke-linejoin="round"/>
<path d="M143.811 1376.99L10.8602 1493.32" stroke="#171717" stroke-width="20" stroke-linecap="round" stroke-linejoin="round"/>
<path d="M143.811 1252.99L10.8602 1369.32" stroke="#171717" stroke-width="20" stroke-linecap="round" stroke-linejoin="round"/>
<path d="M143.811 1624.99L10.8602 1741.32" stroke="#171717" stroke-width="20" stroke-linecap="round" stroke-linejoin="round"/>
<path d="M143.811 1810.99L10.8602 1927.32" stroke="#171717" stroke-width="20" stroke-linecap="round" stroke-linejoin="round"/>
<path d="M143.811 1748.99L10.8602 1865.32" stroke="#171717" stroke-width="20" stroke-linecap="round" stroke-linejoin="round"/>
<path d="M143.811 1686.99L10.8602 1803.32" stroke="#171717" stroke-width="20" stroke-linecap="round" stroke-linejoin="round"/>
<path d="M143.811 1562.99L10.8602 1679.32" stroke="#171717" stroke-width="20" stroke-linecap="round" stroke-linejoin="round"/>
</svg>
