<svg width="153" height="1693" viewBox="0 0 153 1693" fill="none" xmlns="http://www.w3.org/2000/svg">
<path d="M142.951 136.99L9.99986 253.322" stroke="#0047FF" stroke-width="20" stroke-linecap="round" stroke-linejoin="round"/>
<path d="M142.951 74.9898L9.99986 191.322" stroke="#0047FF" stroke-width="20" stroke-linecap="round" stroke-linejoin="round"/>
<path d="M142.951 12.9898L9.99986 129.322" stroke="#0047FF" stroke-width="20" stroke-linecap="round" stroke-linejoin="round"/>
<path d="M142.951 260.99L9.99986 377.322" stroke="#0047FF" stroke-width="20" stroke-linecap="round" stroke-linejoin="round"/>
<path d="M142.951 446.99L9.99986 563.322" stroke="#0047FF" stroke-width="20" stroke-linecap="round" stroke-linejoin="round"/>
<path d="M142.951 384.99L9.99986 501.322" stroke="#0047FF" stroke-width="20" stroke-linecap="round" stroke-linejoin="round"/>
<path d="M142.951 322.99L9.99986 439.322" stroke="#0047FF" stroke-width="20" stroke-linecap="round" stroke-linejoin="round"/>
<path d="M142.951 198.99L9.99986 315.322" stroke="#0047FF" stroke-width="20" stroke-linecap="round" stroke-linejoin="round"/>
<path d="M142.951 570.99L9.99986 687.322" stroke="#0047FF" stroke-width="20" stroke-linecap="round" stroke-linejoin="round"/>
<path d="M142.951 756.99L9.99986 873.322" stroke="#0047FF" stroke-width="20" stroke-linecap="round" stroke-linejoin="round"/>
<path d="M142.951 694.99L9.99986 811.322" stroke="#0047FF" stroke-width="20" stroke-linecap="round" stroke-linejoin="round"/>
<path d="M142.951 632.99L9.99986 749.322" stroke="#0047FF" stroke-width="20" stroke-linecap="round" stroke-linejoin="round"/>
<path d="M142.951 508.99L9.99986 625.322" stroke="#0047FF" stroke-width="20" stroke-linecap="round" stroke-linejoin="round"/>
<path d="M142.951 942.99L9.99986 1059.32" stroke="#0047FF" stroke-width="20" stroke-linecap="round" stroke-linejoin="round"/>
<path d="M142.951 880.99L9.99986 997.322" stroke="#0047FF" stroke-width="20" stroke-linecap="round" stroke-linejoin="round"/>
<path d="M142.951 818.99L9.99986 935.322" stroke="#0047FF" stroke-width="20" stroke-linecap="round" stroke-linejoin="round"/>
<path d="M142.951 1066.99L9.99986 1183.32" stroke="#0047FF" stroke-width="20" stroke-linecap="round" stroke-linejoin="round"/>
<path d="M142.951 1252.99L9.99986 1369.32" stroke="#0047FF" stroke-width="20" stroke-linecap="round" stroke-linejoin="round"/>
<path d="M142.951 1190.99L9.99986 1307.32" stroke="#0047FF" stroke-width="20" stroke-linecap="round" stroke-linejoin="round"/>
<path d="M142.951 1128.99L9.99986 1245.32" stroke="#0047FF" stroke-width="20" stroke-linecap="round" stroke-linejoin="round"/>
<path d="M142.951 1004.99L9.99986 1121.32" stroke="#0047FF" stroke-width="20" stroke-linecap="round" stroke-linejoin="round"/>
<path d="M142.951 1376.99L9.99986 1493.32" stroke="#0047FF" stroke-width="20" stroke-linecap="round" stroke-linejoin="round"/>
<path d="M142.951 1562.99L9.99986 1679.32" stroke="#0047FF" stroke-width="20" stroke-linecap="round" stroke-linejoin="round"/>
<path d="M142.951 1500.99L9.99986 1617.32" stroke="#0047FF" stroke-width="20" stroke-linecap="round" stroke-linejoin="round"/>
<path d="M142.951 1438.99L9.99986 1555.32" stroke="#0047FF" stroke-width="20" stroke-linecap="round" stroke-linejoin="round"/>
<path d="M142.951 1314.99L9.99986 1431.32" stroke="#0047FF" stroke-width="20" stroke-linecap="round" stroke-linejoin="round"/>
</svg>
