<svg width="71" height="115" viewBox="0 0 71 115" fill="none" xmlns="http://www.w3.org/2000/svg">
<path fill-rule="evenodd" clip-rule="evenodd" d="M0 0L1.94516e-05 115H71L71 0H0Z" fill="#0047FF"/>
<path fill-rule="evenodd" clip-rule="evenodd" d="M8 43V0H28L28 43C28 48.5229 23.5229 53 18 53C12.4772 53 8 48.5229 8 43ZM43 10C43 4.47716 47.4772 0 53 0C58.5228 0 63 4.47716 63 10L63 90C63 95.5228 58.5229 100 53 100C47.4772 100 43 95.5228 43 90L43 10ZM28 115L28 78C28 72.4771 23.5229 68 18 68C12.4772 68 8 72.4771 8 78L8.00001 115H28Z" fill="#171717"/>
</svg>
