<svg width="183" height="776" viewBox="0 0 183 776" fill="none" xmlns="http://www.w3.org/2000/svg">
<path d="M173 80L173 219.913" stroke="#FF0000" stroke-width="20" stroke-linecap="round" stroke-linejoin="round"/>
<path d="M52 188L52 327.913" stroke="#FF0000" stroke-width="20" stroke-linecap="round" stroke-linejoin="round"/>
<path d="M52 10L52 149.913" stroke="#FF0000" stroke-width="20" stroke-linecap="round" stroke-linejoin="round"/>
<path d="M10 94L10 233.913" stroke="#FF0000" stroke-width="20" stroke-linecap="round" stroke-linejoin="round"/>
<path d="M10 271L10 410.913" stroke="#FF0000" stroke-width="20" stroke-linecap="round" stroke-linejoin="round"/>
<path d="M134 188L134 327.913" stroke="#FF0000" stroke-width="20" stroke-linecap="round" stroke-linejoin="round"/>
<path d="M173 271L173 410.913" stroke="#FF0000" stroke-width="20" stroke-linecap="round" stroke-linejoin="round"/>
<path d="M134 10L134 149.913" stroke="#FF0000" stroke-width="20" stroke-linecap="round" stroke-linejoin="round"/>
<path d="M94 94L94 233.913" stroke="#FF0000" stroke-width="20" stroke-linecap="round" stroke-linejoin="round"/>
<path d="M94 271L94 410.913" stroke="#FF0000" stroke-width="20" stroke-linecap="round" stroke-linejoin="round"/>
<path d="M173 94L173 233.913" stroke="#FF0000" stroke-width="20" stroke-linecap="round" stroke-linejoin="round"/>
<path d="M173 448L173 587.913" stroke="#FF0000" stroke-width="20" stroke-linecap="round" stroke-linejoin="round"/>
<path d="M52 550L52 689.913" stroke="#FF0000" stroke-width="20" stroke-linecap="round" stroke-linejoin="round"/>
<path d="M52 368L52 507.913" stroke="#FF0000" stroke-width="20" stroke-linecap="round" stroke-linejoin="round"/>
<path d="M10 448.216L10 588.13" stroke="#FF0000" stroke-width="20" stroke-linecap="round" stroke-linejoin="round"/>
<path d="M10 626L10 765.913" stroke="#FF0000" stroke-width="20" stroke-linecap="round" stroke-linejoin="round"/>
<path d="M134 550L134 689.913" stroke="#FF0000" stroke-width="20" stroke-linecap="round" stroke-linejoin="round"/>
<path d="M173 626L173 765.913" stroke="#FF0000" stroke-width="20" stroke-linecap="round" stroke-linejoin="round"/>
<path d="M134 368L134 507.913" stroke="#FF0000" stroke-width="20" stroke-linecap="round" stroke-linejoin="round"/>
<path d="M94 448L94 587.913" stroke="#FF0000" stroke-width="20" stroke-linecap="round" stroke-linejoin="round"/>
<path d="M94 626L94 765.913" stroke="#FF0000" stroke-width="20" stroke-linecap="round" stroke-linejoin="round"/>
<path d="M173 451L173 590.913" stroke="#FF0000" stroke-width="20" stroke-linecap="round" stroke-linejoin="round"/>
</svg>
