<svg width="144" height="1489" viewBox="0 0 144 1489" fill="none" xmlns="http://www.w3.org/2000/svg">
<path d="M52 188V327.913" stroke="#FF0000" stroke-width="20" stroke-linecap="round" stroke-linejoin="round"/>
<path d="M52 10V149.913" stroke="#FF0000" stroke-width="20" stroke-linecap="round" stroke-linejoin="round"/>
<path d="M10 94V233.913" stroke="#FF0000" stroke-width="20" stroke-linecap="round" stroke-linejoin="round"/>
<path d="M10 271V410.913" stroke="#FF0000" stroke-width="20" stroke-linecap="round" stroke-linejoin="round"/>
<path d="M134 188V327.913" stroke="#FF0000" stroke-width="20" stroke-linecap="round" stroke-linejoin="round"/>
<path d="M134 10V149.913" stroke="#FF0000" stroke-width="20" stroke-linecap="round" stroke-linejoin="round"/>
<path d="M94 94V233.913" stroke="#FF0000" stroke-width="20" stroke-linecap="round" stroke-linejoin="round"/>
<path d="M94 271V410.913" stroke="#FF0000" stroke-width="20" stroke-linecap="round" stroke-linejoin="round"/>
<path d="M52 550V689.913" stroke="#FF0000" stroke-width="20" stroke-linecap="round" stroke-linejoin="round"/>
<path d="M52 368V507.913" stroke="#FF0000" stroke-width="20" stroke-linecap="round" stroke-linejoin="round"/>
<path d="M10 448.216V588.13" stroke="#FF0000" stroke-width="20" stroke-linecap="round" stroke-linejoin="round"/>
<path d="M10 626V765.913" stroke="#FF0000" stroke-width="20" stroke-linecap="round" stroke-linejoin="round"/>
<path d="M134 550V689.913" stroke="#FF0000" stroke-width="20" stroke-linecap="round" stroke-linejoin="round"/>
<path d="M134 368V507.913" stroke="#FF0000" stroke-width="20" stroke-linecap="round" stroke-linejoin="round"/>
<path d="M94 448V587.913" stroke="#FF0000" stroke-width="20" stroke-linecap="round" stroke-linejoin="round"/>
<path d="M94 626V765.913" stroke="#FF0000" stroke-width="20" stroke-linecap="round" stroke-linejoin="round"/>
<path d="M52 906V1045.91" stroke="#FF0000" stroke-width="20" stroke-linecap="round" stroke-linejoin="round"/>
<path d="M52 728V867.913" stroke="#FF0000" stroke-width="20" stroke-linecap="round" stroke-linejoin="round"/>
<path d="M10 807V946.913" stroke="#FF0000" stroke-width="20" stroke-linecap="round" stroke-linejoin="round"/>
<path d="M10 984V1123.91" stroke="#FF0000" stroke-width="20" stroke-linecap="round" stroke-linejoin="round"/>
<path d="M134 906V1045.91" stroke="#FF0000" stroke-width="20" stroke-linecap="round" stroke-linejoin="round"/>
<path d="M134 728V867.913" stroke="#FF0000" stroke-width="20" stroke-linecap="round" stroke-linejoin="round"/>
<path d="M94 807V946.913" stroke="#FF0000" stroke-width="20" stroke-linecap="round" stroke-linejoin="round"/>
<path d="M94 984V1123.91" stroke="#FF0000" stroke-width="20" stroke-linecap="round" stroke-linejoin="round"/>
<path d="M52 1268V1407.91" stroke="#FF0000" stroke-width="20" stroke-linecap="round" stroke-linejoin="round"/>
<path d="M52 1086V1225.91" stroke="#FF0000" stroke-width="20" stroke-linecap="round" stroke-linejoin="round"/>
<path d="M10 1161.22V1301.13" stroke="#FF0000" stroke-width="20" stroke-linecap="round" stroke-linejoin="round"/>
<path d="M10 1339V1478.91" stroke="#FF0000" stroke-width="20" stroke-linecap="round" stroke-linejoin="round"/>
<path d="M134 1268V1407.91" stroke="#FF0000" stroke-width="20" stroke-linecap="round" stroke-linejoin="round"/>
<path d="M134 1086V1225.91" stroke="#FF0000" stroke-width="20" stroke-linecap="round" stroke-linejoin="round"/>
<path d="M94 1161V1300.91" stroke="#FF0000" stroke-width="20" stroke-linecap="round" stroke-linejoin="round"/>
<path d="M94 1339V1478.91" stroke="#FF0000" stroke-width="20" stroke-linecap="round" stroke-linejoin="round"/>
</svg>
