<svg width="855" height="100" viewBox="0 0 855 100" fill="none" xmlns="http://www.w3.org/2000/svg">
<path d="M-21 87.0618L54.9066 87.409" stroke="#0047FF" stroke-width="20" stroke-linecap="round" stroke-linejoin="round"/>
<path d="M54.7136 84.6957L-19.3019 9.99995" stroke="#0047FF" stroke-width="20" stroke-linecap="round" stroke-linejoin="round"/>
<path d="M101.463 12.1277L100.917 87.9996" stroke="#0047FF" stroke-width="20" stroke-linecap="round" stroke-linejoin="round"/>
<path d="M102.054 10.9382L26.1471 10.591" stroke="#0047FF" stroke-width="20" stroke-linecap="round" stroke-linejoin="round"/>
<path d="M26.3401 13.3043L100.356 88" stroke="#0047FF" stroke-width="20" stroke-linecap="round" stroke-linejoin="round"/>
<path d="M138.592 86.8723L139.137 11.0004" stroke="#0047FF" stroke-width="20" stroke-linecap="round" stroke-linejoin="round"/>
<path d="M138 88.0618L213.907 88.409" stroke="#0047FF" stroke-width="20" stroke-linecap="round" stroke-linejoin="round"/>
<path d="M213.714 85.6957L139.698 11" stroke="#0047FF" stroke-width="20" stroke-linecap="round" stroke-linejoin="round"/>
<path d="M260.463 13.1277L259.917 88.9996" stroke="#0047FF" stroke-width="20" stroke-linecap="round" stroke-linejoin="round"/>
<path d="M261.054 11.9382L185.147 11.591" stroke="#0047FF" stroke-width="20" stroke-linecap="round" stroke-linejoin="round"/>
<path d="M185.34 14.3043L259.356 89" stroke="#0047FF" stroke-width="20" stroke-linecap="round" stroke-linejoin="round"/>
<path d="M297.592 86.8723L298.137 11.0004" stroke="#0047FF" stroke-width="20" stroke-linecap="round" stroke-linejoin="round"/>
<path d="M297 88.0618L372.907 88.409" stroke="#0047FF" stroke-width="20" stroke-linecap="round" stroke-linejoin="round"/>
<path d="M372.714 85.6957L298.698 11" stroke="#0047FF" stroke-width="20" stroke-linecap="round" stroke-linejoin="round"/>
<path d="M419.463 13.1277L418.917 88.9996" stroke="#0047FF" stroke-width="20" stroke-linecap="round" stroke-linejoin="round"/>
<path d="M420.054 11.9382L344.147 11.591" stroke="#0047FF" stroke-width="20" stroke-linecap="round" stroke-linejoin="round"/>
<path d="M344.34 14.3043L418.356 89" stroke="#0047FF" stroke-width="20" stroke-linecap="round" stroke-linejoin="round"/>
<path d="M456.592 87.8723L457.137 12.0004" stroke="#0047FF" stroke-width="20" stroke-linecap="round" stroke-linejoin="round"/>
<path d="M456 89.0618L531.907 89.409" stroke="#0047FF" stroke-width="20" stroke-linecap="round" stroke-linejoin="round"/>
<path d="M531.714 86.6957L457.698 12" stroke="#0047FF" stroke-width="20" stroke-linecap="round" stroke-linejoin="round"/>
<path d="M611.592 87.8723L612.137 12.0004" stroke="#0047FF" stroke-width="20" stroke-linecap="round" stroke-linejoin="round"/>
<path d="M611 89.0618L686.907 89.409" stroke="#0047FF" stroke-width="20" stroke-linecap="round" stroke-linejoin="round"/>
<path d="M686.714 86.6957L612.698 12" stroke="#0047FF" stroke-width="20" stroke-linecap="round" stroke-linejoin="round"/>
<path d="M578.463 14.1277L577.917 89.9996" stroke="#0047FF" stroke-width="20" stroke-linecap="round" stroke-linejoin="round"/>
<path d="M579.054 12.9382L503.147 12.591" stroke="#0047FF" stroke-width="20" stroke-linecap="round" stroke-linejoin="round"/>
<path d="M503.34 15.3043L577.356 90" stroke="#0047FF" stroke-width="20" stroke-linecap="round" stroke-linejoin="round"/>
<path d="M769.592 87.8723L770.137 12.0004" stroke="#0047FF" stroke-width="20" stroke-linecap="round" stroke-linejoin="round"/>
<path d="M769 89.0618L844.907 89.409" stroke="#0047FF" stroke-width="20" stroke-linecap="round" stroke-linejoin="round"/>
<path d="M844.714 86.6957L770.698 12" stroke="#0047FF" stroke-width="20" stroke-linecap="round" stroke-linejoin="round"/>
<path d="M736.463 14.1277L735.917 89.9996" stroke="#0047FF" stroke-width="20" stroke-linecap="round" stroke-linejoin="round"/>
<path d="M737.054 12.9382L661.147 12.591" stroke="#0047FF" stroke-width="20" stroke-linecap="round" stroke-linejoin="round"/>
<path d="M661.34 15.3043L735.356 90" stroke="#0047FF" stroke-width="20" stroke-linecap="round" stroke-linejoin="round"/>
</svg>
