<svg width="1410" height="490" viewBox="0 0 1410 490" fill="none" xmlns="http://www.w3.org/2000/svg">
<path d="M861.71 245.36L938.534 169.991" stroke="#FF0000" stroke-width="20" stroke-linecap="round" stroke-linejoin="round"/>
<path d="M938.851 398.877L1013.74 325.035" stroke="#FF0000" stroke-width="20" stroke-linecap="round" stroke-linejoin="round"/>
<path d="M1168.19 170.45L1168.73 92.6177" stroke="#0047FF" stroke-width="20" stroke-linecap="round" stroke-linejoin="round"/>
<path d="M1322.78 324.125L1323.32 247.449" stroke="#0047FF" stroke-width="20" stroke-linecap="round" stroke-linejoin="round"/>
<path d="M938.541 168.835L939.088 91.0032" stroke="#0047FF" stroke-width="20" stroke-linecap="round" stroke-linejoin="round"/>
<path d="M781.496 474.066L782.024 398.931" stroke="#0047FF" stroke-width="20" stroke-linecap="round" stroke-linejoin="round"/>
<path d="M937.72 395.401L939.304 169.997" stroke="#0047FF" stroke-width="20" stroke-linecap="round" stroke-linejoin="round"/>
<path d="M783.641 168.903L784.188 91.0706" stroke="#0047FF" stroke-width="20" stroke-linecap="round" stroke-linejoin="round"/>
<path d="M1322.22 402.727L1321.68 479.789L1399.29 403.269L1322.22 402.727Z" stroke="#FF0000" stroke-width="20" stroke-linecap="round" stroke-linejoin="round"/>
<path d="M1247.02 246.913L1324.09 247.454L1247.56 171.007L1247.02 246.913Z" stroke="#FF0000" stroke-width="20" stroke-linecap="round" stroke-linejoin="round"/>
<path d="M1016.17 88.4626L1016.65 21.0339" stroke="#FF0000" stroke-width="20" stroke-linecap="round" stroke-linejoin="round"/>
<path d="M859.704 475.771L860.044 398.708" stroke="#FF0000" stroke-width="20" stroke-linecap="round" stroke-linejoin="round"/>
<path d="M1014.14 322.341L1014.48 245.278" stroke="#FF0000" stroke-width="20" stroke-linecap="round" stroke-linejoin="round"/>
<path d="M781.795 321.864L782.135 244.801" stroke="#FF0000" stroke-width="20" stroke-linecap="round" stroke-linejoin="round"/>
<path d="M705.348 398.392L705.504 321.327" stroke="#FF0000" stroke-width="20" stroke-linecap="round" stroke-linejoin="round"/>
<path d="M861.265 89.2996L784.589 88.7606" stroke="#FF0000" stroke-width="20" stroke-linecap="round" stroke-linejoin="round"/>
<path d="M781.795 321.864L705.889 321.33" stroke="#FF0000" stroke-width="20" stroke-linecap="round" stroke-linejoin="round"/>
<path d="M1014.29 246.433L938 245.897" stroke="#FF0000" stroke-width="20" stroke-linecap="round" stroke-linejoin="round"/>
<path d="M1247.56 171.007L1168.18 170.449" stroke="#FF0000" stroke-width="20" stroke-linecap="round" stroke-linejoin="round"/>
<path d="M1014.13 323.497L938.615 322.966" stroke="#0047FF" stroke-width="20" stroke-linecap="round" stroke-linejoin="round"/>
<path d="M936.916 400.019L859.084 399.472" stroke="#0047FF" stroke-width="20" stroke-linecap="round" stroke-linejoin="round"/>
<path d="M783.564 398.941L705.732 398.394" stroke="#0047FF" stroke-width="20" stroke-linecap="round" stroke-linejoin="round"/>
<path d="M783.263 167.744L705.431 167.197" stroke="#0047FF" stroke-width="20" stroke-linecap="round" stroke-linejoin="round"/>
<path d="M1166.81 92.6035L1088.97 92.0564" stroke="#0047FF" stroke-width="20" stroke-linecap="round" stroke-linejoin="round"/>
<path d="M939.092 90.6178L1015.14 16.0138" stroke="#FF0000" stroke-width="20" stroke-linecap="round" stroke-linejoin="round"/>
<path d="M863.043 165.221L939.867 89.8522" stroke="#FF0000" stroke-width="20" stroke-linecap="round" stroke-linejoin="round"/>
<path d="M706.816 244.271L783.64 168.902" stroke="#FF0000" stroke-width="20" stroke-linecap="round" stroke-linejoin="round"/>
<path d="M705.514 319.786L781.565 244.797" stroke="#FF0000" stroke-width="20" stroke-linecap="round" stroke-linejoin="round"/>
<path d="M782.26 474.841L859.085 399.472" stroke="#FF0000" stroke-width="20" stroke-linecap="round" stroke-linejoin="round"/>
<path d="M784.589 88.761L861.414 13.3917" stroke="#FF0000" stroke-width="20" stroke-linecap="round" stroke-linejoin="round"/>
<path d="M1322.17 246.285L1399.83 326.209" stroke="#FF0000" stroke-width="20" stroke-linecap="round" stroke-linejoin="round"/>
<path d="M938.855 14.7066L1014.61 91.1483" stroke="#FF0000" stroke-width="20" stroke-linecap="round" stroke-linejoin="round"/>
<path d="M705.733 398.395L781.49 474.837" stroke="#FF0000" stroke-width="20" stroke-linecap="round" stroke-linejoin="round"/>
<path d="M862.569 13.4004L938.326 89.8422" stroke="#FF0000" stroke-width="20" stroke-linecap="round" stroke-linejoin="round"/>
<path d="M861.262 89.6846L938.087 14.3153" stroke="#0047FF" stroke-width="20" stroke-linecap="round" stroke-linejoin="round"/>
<path d="M859.319 475.768L936.143 400.399" stroke="#0047FF" stroke-width="20" stroke-linecap="round" stroke-linejoin="round"/>
<path d="M705.431 167.196L783.43 89.1377" stroke="#0047FF" stroke-width="20" stroke-linecap="round" stroke-linejoin="round"/>
<path d="M1322.22 402.728L1399.83 326.208" stroke="#0047FF" stroke-width="20" stroke-linecap="round" stroke-linejoin="round"/>
<path d="M1323.15 325.669L1399.29 403.269" stroke="#0047FF" stroke-width="20" stroke-linecap="round" stroke-linejoin="round"/>
<path d="M862.628 169.458L938.386 245.899" stroke="#0047FF" stroke-width="20" stroke-linecap="round" stroke-linejoin="round"/>
<path d="M1015.14 15.6287L1090.9 92.0704" stroke="#0047FF" stroke-width="20" stroke-linecap="round" stroke-linejoin="round"/>
<path d="M1091.66 94.0025L1167.41 170.444" stroke="#0047FF" stroke-width="20" stroke-linecap="round" stroke-linejoin="round"/>
<path d="M938.927 168.838L1014.68 245.28" stroke="#0047FF" stroke-width="20" stroke-linecap="round" stroke-linejoin="round"/>
<path d="M705.809 168.355L781.566 244.797" stroke="#0047FF" stroke-width="20" stroke-linecap="round" stroke-linejoin="round"/>
<path d="M783.565 398.941L857.792 473.831" stroke="#0047FF" stroke-width="20" stroke-linecap="round" stroke-linejoin="round"/>
<path d="M1087.82 92.0481L1014.61 91.5335" stroke="#FF0000" stroke-width="20" stroke-linecap="round" stroke-linejoin="round"/>
<path d="M549.726 242.764L473.781 166.508" stroke="#FF0000" stroke-width="20" stroke-linecap="round" stroke-linejoin="round"/>
<path d="M470.807 395.375L396.782 320.669" stroke="#FF0000" stroke-width="20" stroke-linecap="round" stroke-linejoin="round"/>
<path d="M244.139 164.302L244.495 86.4684" stroke="#0047FF" stroke-width="20" stroke-linecap="round" stroke-linejoin="round"/>
<path d="M87.7754 316.173L88.1261 239.496" stroke="#0047FF" stroke-width="20" stroke-linecap="round" stroke-linejoin="round"/>
<path d="M473.786 165.352L474.142 87.5189" stroke="#0047FF" stroke-width="20" stroke-linecap="round" stroke-linejoin="round"/>
<path d="M627.28 472.385L627.624 397.249" stroke="#0047FF" stroke-width="20" stroke-linecap="round" stroke-linejoin="round"/>
<path d="M471.979 391.913L473.01 166.505" stroke="#0047FF" stroke-width="20" stroke-linecap="round" stroke-linejoin="round"/>
<path d="M628.676 167.217L629.032 89.3834" stroke="#0047FF" stroke-width="20" stroke-linecap="round" stroke-linejoin="round"/>
<path d="M87.416 394.777L87.0635 471.839L10.3535 394.424L87.416 394.777Z" stroke="#FF0000" stroke-width="20" stroke-linecap="round" stroke-linejoin="round"/>
<path d="M164.418 239.845L87.3555 239.492L164.765 163.938L164.418 239.845Z" stroke="#FF0000" stroke-width="20" stroke-linecap="round" stroke-linejoin="round"/>
<path d="M397.094 84.0842L397.402 16.6545" stroke="#FF0000" stroke-width="20" stroke-linecap="round" stroke-linejoin="round"/>
<path d="M549.057 473.182L549.611 396.121" stroke="#FF0000" stroke-width="20" stroke-linecap="round" stroke-linejoin="round"/>
<path d="M396.408 317.97L396.962 240.909" stroke="#FF0000" stroke-width="20" stroke-linecap="round" stroke-linejoin="round"/>
<path d="M629.339 319L629.885 243.129" stroke="#FF0000" stroke-width="20" stroke-linecap="round" stroke-linejoin="round"/>
<path d="M704.302 397.599L705.04 320.538" stroke="#FF0000" stroke-width="20" stroke-linecap="round" stroke-linejoin="round"/>
<path d="M551.98 86.7188L628.658 87.0695" stroke="#FF0000" stroke-width="20" stroke-linecap="round" stroke-linejoin="round"/>
<path d="M628.747 320.19L704.654 320.537" stroke="#FF0000" stroke-width="20" stroke-linecap="round" stroke-linejoin="round"/>
<path d="M397.142 242.066L473.433 242.415" stroke="#FF0000" stroke-width="20" stroke-linecap="round" stroke-linejoin="round"/>
<path d="M164.766 163.939L244.14 164.302" stroke="#FF0000" stroke-width="20" stroke-linecap="round" stroke-linejoin="round"/>
<path d="M396.403 319.126L471.925 319.472" stroke="#0047FF" stroke-width="20" stroke-linecap="round" stroke-linejoin="round"/>
<path d="M472.729 396.54L550.562 396.896" stroke="#0047FF" stroke-width="20" stroke-linecap="round" stroke-linejoin="round"/>
<path d="M626.083 397.241L703.916 397.597" stroke="#0047FF" stroke-width="20" stroke-linecap="round" stroke-linejoin="round"/>
<path d="M629.067 166.063L706.901 166.419" stroke="#0047FF" stroke-width="20" stroke-linecap="round" stroke-linejoin="round"/>
<path d="M246.422 86.4768L324.255 86.8328" stroke="#0047FF" stroke-width="20" stroke-linecap="round" stroke-linejoin="round"/>
<path d="M474.144 87.1337L398.966 11.6523" stroke="#FF0000" stroke-width="20" stroke-linecap="round" stroke-linejoin="round"/>
<path d="M549.322 162.615L473.377 86.3595" stroke="#FF0000" stroke-width="20" stroke-linecap="round" stroke-linejoin="round"/>
<path d="M704.622 243.473L628.677 167.217" stroke="#FF0000" stroke-width="20" stroke-linecap="round" stroke-linejoin="round"/>
<path d="M704.461 317.825L630.445 243.13" stroke="#FF0000" stroke-width="20" stroke-linecap="round" stroke-linejoin="round"/>
<path d="M626.506 473.151L550.562 396.896" stroke="#FF0000" stroke-width="20" stroke-linecap="round" stroke-linejoin="round"/>
<path d="M628.658 87.0697L552.713 10.8141" stroke="#FF0000" stroke-width="20" stroke-linecap="round" stroke-linejoin="round"/>
<path d="M89.2869 238.346L10.7054 317.362" stroke="#FF0000" stroke-width="20" stroke-linecap="round" stroke-linejoin="round"/>
<path d="M475.261 11.2304L398.622 86.788" stroke="#FF0000" stroke-width="20" stroke-linecap="round" stroke-linejoin="round"/>
<path d="M703.917 397.598L627.277 473.155" stroke="#FF0000" stroke-width="20" stroke-linecap="round" stroke-linejoin="round"/>
<path d="M551.557 10.8092L474.918 86.3668" stroke="#FF0000" stroke-width="20" stroke-linecap="round" stroke-linejoin="round"/>
<path d="M551.979 87.1041L476.034 10.8485" stroke="#0047FF" stroke-width="20" stroke-linecap="round" stroke-linejoin="round"/>
<path d="M549.442 473.184L473.497 396.929" stroke="#0047FF" stroke-width="20" stroke-linecap="round" stroke-linejoin="round"/>
<path d="M706.9 166.418L629.812 87.4602" stroke="#0047FF" stroke-width="20" stroke-linecap="round" stroke-linejoin="round"/>
<path d="M87.4151 394.777L10.7051 317.362" stroke="#0047FF" stroke-width="20" stroke-linecap="round" stroke-linejoin="round"/>
<path d="M87.3828 317.713L10.3531 394.425" stroke="#0047FF" stroke-width="20" stroke-linecap="round" stroke-linejoin="round"/>
<path d="M549.687 166.856L473.048 242.413" stroke="#0047FF" stroke-width="20" stroke-linecap="round" stroke-linejoin="round"/>
<path d="M398.967 11.267L322.328 86.8246" stroke="#0047FF" stroke-width="20" stroke-linecap="round" stroke-linejoin="round"/>
<path d="M321.548 88.748L244.909 164.306" stroke="#0047FF" stroke-width="20" stroke-linecap="round" stroke-linejoin="round"/>
<path d="M473.4 165.351L396.761 240.908" stroke="#0047FF" stroke-width="20" stroke-linecap="round" stroke-linejoin="round"/>
<path d="M706.509 167.573L629.87 243.131" stroke="#0047FF" stroke-width="20" stroke-linecap="round" stroke-linejoin="round"/>
<path d="M626.083 397.242L550.993 471.265" stroke="#0047FF" stroke-width="20" stroke-linecap="round" stroke-linejoin="round"/>
<path d="M325.411 86.8384L398.621 87.1733" stroke="#FF0000" stroke-width="20" stroke-linecap="round" stroke-linejoin="round"/>
</svg>
